# xmcd
#
# Track frame offsets:
# 182
# 16307
# 32155
# 43645
# 59077
# 74585
# 90212
# 105310
# 121147
# 137117
# 151817
# 168337
# 185335
# 199060
# 210957
# 224885
# 238477
# 252767
# 267562
# 282470
#
# Disc length: 3956 seconds
#
#
# Revision: 2
# Processed by: cddbd v1.5PL3 Copyright (c) Steve Scherf et al.
# Submitted via: FreeRIP 2.53 
#
DISCID=2b0f7214
DTITLE=Hooker, John Lee - Detroit 1948-1949
DYEAR=2002
DGENRE=Blues
TTITLE0=Low Down Midnite Boogie
TTITLE1=Grievin' Blues
TTITLE2=Twister Blues
TTITLE3=Like A Woman
TTITLE4=Landing Blues
TTITLE5=Goin' Home Blues
TTITLE6=Shady Grove Blues
TTITLE7=Boogie Woogie
TTITLE8=Good Business
TTITLE9=Mercy Blues
TTITLE10=Helpless Blues
TTITLE11=Goin' Mad Blues
TTITLE12=Morning Blues
TTITLE13=Boogie Awhile
TTITLE14=Tuesday Evening Blues
TTITLE15=Miss Pearl Boogie
TTITLE16=Road Trouble
TTITLE17=609 Boogie
TTITLE18=Christmas Time Blues
TTITLE19=Do The Boogie
EXTD=
EXTT0=
EXTT1=
EXTT2=
EXTT3=
EXTT4=
EXTT5=
EXTT6=
EXTT7=
EXTT8=
EXTT9=
EXTT10=
EXTT11=
EXTT12=
EXTT13=
EXTT14=
EXTT15=
EXTT16=
EXTT17=
EXTT18=
EXTT19=
PLAYORDER=
